<?xml version="1.0" standalone="no"?>
<!DOCTYPE svg PUBLIC "-//W3C//DTD SVG 20010904//EN"
 "http://www.w3.org/TR/2001/REC-SVG-20010904/DTD/svg10.dtd">
<svg version="1.0" xmlns="http://www.w3.org/2000/svg"
 width="259.000000pt" height="469.000000pt" viewBox="0 0 259.000000 469.000000"
 preserveAspectRatio="xMidYMid meet">

<g transform="translate(0.000000,469.000000) scale(0.100000,-0.100000)"
fill="#000000" stroke="none">
<path d="M1298 4605 c-68 -24 -180 -93 -196 -121 -5 -9 -47 -55 -94 -102 l-85
-87 8 -65 c4 -36 10 -148 14 -250 9 -285 11 -291 127 -418 40 -43 83 -91 95
-108 l22 -29 0 32 c1 31 6 35 84 72 95 46 176 113 202 168 23 50 42 94 48 114
3 10 14 15 29 13 12 -1 31 -3 41 -3 34 -2 17 -71 -18 -71 -33 0 -44 -20 -51
-91 l-5 -64 24 29 c14 16 42 68 63 115 21 47 57 117 81 155 24 37 46 82 50
100 3 17 12 41 20 54 8 13 12 29 10 37 -3 7 0 18 6 24 9 9 9 14 -2 20 -9 6
-10 11 -2 15 14 9 14 85 1 106 -7 11 -10 4 -10 -27 0 -24 -7 -48 -16 -57 -8
-9 -13 -20 -9 -25 3 -5 2 -12 -3 -15 -12 -7 -28 46 -43 142 -7 45 -16 82 -21
82 -4 0 -8 5 -8 10 0 24 40 7 60 -25 20 -33 21 -37 6 -66 -20 -41 -20 -55 0
-35 36 36 20 146 -21 146 -8 0 -15 7 -15 16 0 10 -24 39 -52 66 -29 26 -62 57
-73 68 -28 26 -114 62 -139 57 -19 -4 -19 -4 2 -6 12 0 22 -5 22 -11 0 -5 -10
-10 -22 -11 -18 -1 -16 -3 10 -11 28 -10 32 -15 33 -47 1 -20 3 -28 6 -18 5
18 12 21 37 11 15 -6 13 -12 -12 -53 -2 -5 -42 13 -82 36 -14 8 -33 17 -42 20
-10 3 -18 9 -18 14 0 5 -11 9 -25 9 -27 0 -75 26 -75 41 0 9 81 48 125 59 27
7 28 8 5 8 -14 0 -55 -10 -92 -23z m-88 -85 c0 -6 -7 -13 -15 -16 -8 -4 -12
-10 -9 -15 3 -5 -10 -8 -28 -8 -18 1 -25 3 -15 6 9 2 17 11 17 18 0 13 14 23
38 24 6 1 12 -4 12 -9z m320 -11 c0 -4 -7 -6 -15 -3 -8 4 -15 10 -15 15 0 4 7
6 15 3 8 -4 15 -10 15 -15z m90 -98 c37 -29 19 -35 -29 -10 -47 24 -53 31 -45
52 4 12 9 11 27 -4 12 -10 33 -27 47 -38z m-261 -110 c64 -55 73 -74 125 -241
46 -148 47 -191 4 -231 -58 -54 -91 -75 -189 -118 l-96 -43 -43 22 c-27 14
-56 20 -82 19 -34 -3 -42 0 -54 21 -20 38 -17 55 17 83 26 21 41 25 95 26 39
0 62 -4 59 -9 -4 -6 -19 -10 -35 -10 -16 0 -32 -5 -35 -10 -4 -7 7 -8 33 -4
40 6 122 -19 122 -38 0 -22 18 -4 24 23 7 34 -15 75 -45 84 -10 4 -26 19 -35
35 -22 35 -86 56 -126 41 -19 -7 -26 -15 -22 -25 7 -18 -13 -40 -44 -50 -15
-5 -25 -18 -29 -37 -13 -67 -34 -3 -32 101 2 90 9 104 57 112 23 4 46 10 51
13 5 3 12 1 16 -4 3 -6 -16 -13 -45 -17 -27 -4 -50 -11 -50 -16 0 -10 110 0
123 11 4 4 11 22 17 39 8 29 6 34 -19 46 -20 11 -38 12 -67 6 -21 -5 -43 -10
-47 -10 -4 0 4 20 18 45 15 24 24 49 20 55 -12 20 8 9 57 -30 28 -22 54 -40
57 -40 14 0 69 66 76 90 13 47 45 110 56 110 6 0 37 -22 68 -49z m-279 -208
c-93 -31 -102 -33 -90 -18 11 13 41 21 85 23 13 0 15 -1 5 -5z m75 -223 c-3
-5 -17 -10 -31 -10 -13 0 -24 5 -24 10 0 6 14 10 31 10 17 0 28 -4 24 -10z"/>
<path d="M1312 4248 c-1 -20 -6 -40 -12 -43 -5 -3 -10 -11 -10 -18 0 -7 6 -5
16 4 10 11 14 29 11 55 l-4 39 -1 -37z"/>
<path d="M1203 4118 c-25 -15 -19 -33 25 -80 27 -29 70 -36 141 -22 49 10 36
22 -31 30 -51 6 -58 9 -38 16 13 5 44 6 68 2 35 -5 44 -4 40 7 -12 40 -159 73
-205 47z"/>
<path d="M1054 3779 c-9 -15 15 -29 50 -29 37 0 106 21 106 32 0 12 -148 10
-156 -3z"/>
<path d="M1510 3491 c0 -66 -100 -171 -162 -171 -17 0 -54 -39 -97 -103 -18
-26 -36 -45 -40 -42 -5 2 -12 22 -16 42 -12 67 -31 93 -68 91 -40 -1 -73 9
-98 30 -21 18 -25 47 -9 57 6 3 10 26 10 51 0 35 -3 44 -18 44 -32 0 -89 -57
-111 -113 -16 -39 -30 -57 -54 -69 -18 -9 -61 -31 -97 -50 -36 -18 -83 -41
-105 -50 -58 -25 -142 -90 -175 -135 -54 -73 -77 -157 -105 -388 -21 -177 -33
-237 -63 -328 l-27 -79 28 -20 c16 -12 27 -29 27 -43 0 -13 -20 -90 -44 -172
-66 -221 -79 -314 -83 -623 -2 -195 -4 -230 -18 -390 -4 -47 -4 -81 1 -77 8 7
20 89 43 279 5 43 13 83 17 90 5 7 16 51 26 98 l17 85 -4 -80 -5 -80 15 50 c8
28 21 70 30 95 l15 45 -6 -50 c-3 -27 -12 -75 -20 -105 -15 -55 -18 -230 -4
-230 3 0 16 49 28 108 18 87 22 140 21 268 -1 87 -4 143 -8 124 -3 -19 -9 -30
-12 -25 -10 19 -11 236 -1 248 6 7 10 16 10 22 1 12 22 20 22 8 1 -4 7 -47 14
-94 12 -82 7 -264 -10 -341 -3 -17 -1 -28 5 -28 6 0 11 7 11 16 0 9 6 30 14
47 23 51 77 259 72 274 -3 8 -1 11 4 8 6 -4 10 32 11 97 0 57 4 112 8 123 l8
20 6 -20 c23 -82 -7 -264 -78 -480 -24 -71 -50 -161 -59 -200 -9 -38 -23 -98
-31 -132 -17 -72 -19 -119 -5 -128 6 -3 10 5 10 18 0 14 27 103 61 199 115
330 126 374 180 713 11 72 27 156 36 187 16 59 36 88 47 69 13 -21 6 -339 -9
-432 -8 -52 -18 -145 -22 -207 -5 -99 -9 -115 -27 -130 -20 -15 -21 -25 -18
-92 7 -137 5 -184 -13 -250 -24 -90 -30 -129 -15 -110 18 24 7 -66 -29 -233
-44 -209 -42 -349 9 -702 6 -38 12 -76 15 -83 3 -9 69 -12 280 -12 264 0 275
1 275 19 0 11 14 61 30 113 39 118 70 235 70 264 0 26 17 41 31 27 9 -9 14
-39 46 -291 l17 -132 244 2 245 3 24 135 c29 166 53 373 53 460 0 36 7 105 16
153 8 49 13 103 10 120 -3 18 -8 86 -11 152 -3 66 -8 131 -10 145 -3 24 -3 24
8 -2 6 -16 16 -28 22 -28 6 0 26 -11 45 -25 49 -36 61 -30 17 9 l-38 34 -4
243 c-2 134 -8 287 -14 339 -6 52 -15 158 -21 235 -32 431 -31 456 8 373 53
-109 115 -364 127 -522 7 -93 42 -353 49 -365 3 -4 10 -74 16 -156 10 -136 21
-201 66 -405 8 -35 20 -69 25 -75 12 -11 12 -10 -15 130 -8 44 -11 84 -6 88 4
5 11 -10 15 -33 7 -43 39 -90 61 -90 20 0 32 56 44 205 6 77 20 208 31 290 30
230 33 296 15 465 -17 166 -55 370 -68 370 -4 0 -8 -9 -8 -20 0 -11 -6 -23
-14 -26 -8 -3 -19 -24 -25 -47 -11 -43 -52 -97 -74 -97 -20 0 -38 16 -35 30 2
7 -13 23 -32 36 -55 36 -84 67 -101 111 -6 15 -16 38 -22 50 -14 30 3 48 61
67 112 37 224 37 230 1 6 -34 19 -38 42 -13 24 25 23 46 -4 133 -35 112 -59
206 -82 319 -43 214 -86 330 -142 389 -36 38 -124 86 -252 138 -107 44 -214
114 -225 149 -6 18 -54 60 -69 60 -3 0 -6 -18 -6 -39z m-331 -273 c10 -26 -9
-44 -35 -34 -11 4 -12 10 -2 31 14 31 26 32 37 3z m-248 -116 c1 -51 -1 -95
-5 -99 -3 -3 -6 11 -6 33 0 21 -3 71 -6 109 -5 51 -4 67 5 60 6 -6 11 -50 12
-103z m249 -33 c0 -24 -29 -37 -41 -18 -5 8 -2 20 8 31 18 21 33 15 33 -13z
m-530 -230 c5 -123 13 -245 18 -270 10 -56 3 -188 -9 -149 -4 14 -7 48 -8 77
-1 29 -6 53 -12 55 -8 3 -13 83 -17 268 -3 195 -1 262 7 254 7 -6 15 -94 21
-235z m297 144 c-3 -10 -5 -4 -5 12 0 17 2 24 5 18 2 -7 2 -21 0 -30z m0 -55
c-3 -7 -5 -2 -5 12 0 14 2 19 5 13 2 -7 2 -19 0 -25z m664 -40 c1 -17 2 -19 6
-5 6 23 61 24 70 1 3 -9 -2 -32 -12 -50 -19 -36 -35 -44 -35 -19 0 8 -3 14 -7
13 -5 -1 -32 1 -60 5 -43 6 -53 11 -53 27 0 23 36 50 67 50 17 0 23 -6 24 -22z
m-755 -24 c-4 -14 -9 -24 -12 -21 -3 2 -2 17 2 31 3 15 9 25 11 22 3 -3 2 -17
-1 -32z m1094 -83 c-16 -61 -37 -150 -45 -198 -17 -98 -25 -115 -25 -56 0 56
86 381 97 369 2 -2 -10 -53 -27 -115z m-796 86 c-3 -9 6 -12 35 -9 21 2 42 -1
45 -7 5 -7 -9 -11 -43 -11 -44 0 -51 3 -51 20 0 11 4 20 10 20 5 0 7 -6 4 -13z
m618 -90 c1 -23 6 -44 10 -47 21 -16 34 -237 19 -305 -9 -37 -21 86 -21 207 0
50 -4 77 -10 73 -6 -3 -10 4 -10 18 0 13 -2 53 -5 88 -4 47 -3 57 4 36 5 -15
11 -46 13 -70z m70 81 c3 -7 1 -24 -3 -38 -4 -14 -8 -18 -8 -10 -1 8 -4 25 -7
38 -7 23 10 32 18 10z m45 -50 c-3 -7 -5 -2 -5 12 0 14 2 19 5 13 2 -7 2 -19
0 -25z m-1086 -94 c-16 -49 -48 -167 -71 -262 -23 -94 -46 -172 -52 -172 -11
0 -9 13 32 186 27 113 54 197 85 269 7 17 16 40 20 53 4 13 9 21 11 19 3 -2
-9 -44 -25 -93z m260 79 c-9 -17 -109 -155 -131 -180 -5 -7 -11 -20 -11 -30
-1 -16 -2 -16 -6 -1 -7 26 43 111 106 180 9 9 22 24 29 33 17 20 25 19 13 -2z
m-309 -25 c-8 -8 -9 -4 -5 13 4 13 8 18 11 10 2 -7 -1 -18 -6 -23z m1121 -61
c-7 -92 -23 -84 -23 11 0 40 4 61 10 57 6 -3 10 -1 10 6 0 7 2 10 4 8 3 -2 2
-40 -1 -82z m-634 59 c-10 -9 -79 -14 -74 -5 4 5 22 9 42 9 20 0 34 -2 32 -4z
m-117 -178 c-2 -27 -8 -48 -14 -48 -9 0 -7 101 3 180 4 33 14 -88 11 -132z
m-391 69 c-13 -13 -15 21 -3 50 6 15 8 13 10 -11 2 -16 -1 -33 -7 -39z m898
-99 c61 -129 83 -182 121 -301 18 -58 5 -55 -24 5 -15 29 -36 69 -48 88 -34
57 -85 162 -101 210 -17 51 -31 140 -22 140 3 0 36 -64 74 -142z m-729 88 c0
-8 -9 -42 -19 -77 -11 -35 -22 -86 -25 -114 -11 -84 -113 -471 -122 -462 -4 3
10 72 41 207 9 36 24 110 35 165 26 128 72 295 82 295 4 0 8 -6 8 -14z m487
-12 c-3 -3 -12 -4 -19 -1 -8 3 -5 6 6 6 11 1 17 -2 13 -5z m-52 -14 c-11 -5
-29 -9 -40 -9 -17 -1 -17 1 -5 9 8 5 26 9 40 9 23 0 23 -1 5 -9z m106 -43 c4
-15 4 -27 1 -27 -15 0 -138 -21 -154 -26 -12 -4 -18 0 -18 10 0 11 9 16 26 16
17 0 28 6 31 19 3 12 19 22 46 28 54 13 60 12 68 -20z m-121 -7 c0 -5 -2 -10
-4 -10 -3 0 -8 5 -11 10 -3 6 -1 10 4 10 6 0 11 -4 11 -10z m-80 -59 c0 -5
-11 -11 -25 -13 -14 -3 -25 -3 -25 -1 0 3 34 19 48 22 1 1 2 -3 2 -8z m210
-26 c0 -19 -4 -35 -10 -35 -5 0 -10 16 -10 35 0 19 5 35 10 35 6 0 10 -16 10
-35z m-690 -145 c-22 -85 -38 -133 -35 -107 5 50 53 255 63 272 17 27 8 -26
-28 -165z m137 128 c-6 -24 -13 -36 -15 -27 -3 15 14 69 22 69 2 0 -1 -19 -7
-42z m513 19 c0 -20 -8 -25 -58 -35 -32 -7 -67 -12 -78 -12 -19 1 -19 1 0 15
11 8 26 15 34 15 8 0 21 8 29 18 8 9 12 11 8 5 -4 -9 3 -13 25 -13 25 0 31 4
26 15 -3 8 -1 15 4 15 6 0 10 -10 10 -23z m-382 -49 c-13 -18 -29 -37 -35 -41
-7 -4 -13 -13 -13 -19 0 -7 5 -6 15 2 25 20 17 1 -15 -40 -16 -21 -30 -46 -30
-55 0 -9 -15 -42 -34 -73 -18 -32 -57 -100 -85 -152 -28 -52 -51 -90 -51 -84
-1 42 167 386 221 454 39 48 59 53 27 8z m207 -18 c-27 -12 -43 -12 -25 0 8 5
22 9 30 9 10 0 8 -3 -5 -9z m325 -10 c0 -4 -7 -10 -15 -13 -16 -7 -29 8 -20
23 6 10 35 2 35 -10z m-141 -63 c0 -10 -3 -15 -9 -12 -5 3 -9 25 -9 48 1 40 2
40 9 12 4 -16 8 -38 9 -48z m60 -129 c1 -37 -3 -70 -9 -73 -7 -4 -9 40 -9 127
2 110 3 123 9 73 4 -33 8 -90 9 -127z m-414 152 c-3 -5 -11 -10 -16 -10 -6 0
-7 5 -4 10 3 6 11 10 16 10 6 0 7 -4 4 -10z m-3 -35 c0 -5 -5 -11 -11 -13 -6
-2 -11 4 -11 13 0 9 5 15 11 13 6 -2 11 -8 11 -13z m541 -14 c21 -36 21 -41 2
-41 -9 0 -14 8 -12 21 1 12 -4 24 -10 26 -8 3 -13 -4 -13 -16 0 -12 -4 -21 -8
-21 -12 0 -10 44 2 52 17 12 21 10 39 -21z m-358 9 c3 -5 1 -10 -4 -10 -6 0
-11 5 -11 10 0 6 2 10 4 10 3 0 8 -4 11 -10z m88 -7 c-7 -2 -19 -2 -25 0 -7 3
-2 5 12 5 14 0 19 -2 13 -5z m-273 -58 c0 -19 -4 -35 -10 -35 -5 0 -10 16 -10
35 0 19 5 35 10 35 6 0 10 -16 10 -35z m-492 -21 c38 -15 39 -22 12 -74 -19
-37 -40 -53 -40 -30 0 11 -62 13 -98 4 -17 -5 -20 -10 -12 -19 14 -17 23 -378
11 -425 -7 -27 -9 -7 -10 84 -1 66 -7 143 -15 175 -8 31 -18 83 -22 116 -7 66
-18 87 -40 78 -21 -8 -18 37 5 67 37 48 125 58 209 24z m1079 -10 c-9 -9 -28
6 -21 18 4 6 10 6 17 -1 6 -6 8 -13 4 -17z m-592 -34 c3 -5 1 -10 -4 -10 -6 0
-11 5 -11 10 0 6 2 10 4 10 3 0 8 -4 11 -10z m652 -16 l35 -26 -74 -34 c-40
-18 -80 -34 -88 -35 -9 0 -11 -2 -3 -5 7 -3 9 -12 6 -20 -9 -23 -23 -16 -23
11 0 14 -4 25 -10 25 -21 0 -9 20 15 26 14 3 25 12 25 19 0 8 10 17 23 21 12
4 28 15 35 25 17 24 19 24 59 -7z m-167 12 c0 -3 -4 -8 -10 -11 -5 -3 -10 -1
-10 4 0 6 5 11 10 11 6 0 10 -2 10 -4z m-320 -31 c0 -8 -7 -15 -16 -15 -14 0
-14 3 -4 15 7 8 14 15 16 15 2 0 4 -7 4 -15z m-160 -10 c0 -8 -4 -15 -10 -15
-5 0 -10 7 -10 15 0 8 5 15 10 15 6 0 10 -7 10 -15z m90 -5 c0 -5 -2 -10 -4
-10 -3 0 -8 5 -11 10 -3 6 -1 10 4 10 6 0 11 -4 11 -10z m95 -97 c-3 -19 -9
-33 -12 -30 -3 3 -2 25 2 49 5 24 10 37 12 30 3 -7 2 -29 -2 -49z m-84 15 c0
-10 2 -10 6 0 2 6 13 12 24 12 13 0 19 -7 19 -24 0 -30 -12 -38 -56 -42 -24
-2 -34 2 -34 12 0 8 5 14 10 14 6 0 10 4 10 9 0 5 -10 7 -22 4 -22 -4 -23 -4
-4 11 24 19 46 21 47 4z m379 -3 c0 -8 -2 -15 -4 -15 -2 0 -6 7 -10 15 -3 8
-1 15 4 15 6 0 10 -7 10 -15z m-443 -51 c11 -24 10 -26 -22 -40 -45 -19 -45
-19 -35 16 5 17 6 30 4 30 -3 0 -2 5 1 10 12 19 40 10 52 -16z m453 16 c-8 -5
-19 -10 -25 -10 -5 0 -3 5 5 10 8 5 20 10 25 10 6 0 3 -5 -5 -10z m614 -7 c4
-16 26 -131 26 -140 0 -2 5 -3 11 -3 6 0 8 9 4 23 -4 16 -3 18 3 7 5 -8 13
-46 17 -85 9 -81 6 -419 -4 -485 l-7 -45 -17 80 -16 80 3 -65 c2 -36 9 -103
16 -149 l12 -85 -26 -23 c-15 -13 -31 -23 -35 -23 -16 0 -22 103 -15 263 4
113 2 182 -6 227 -7 36 -14 115 -16 175 -3 104 -3 108 11 75 14 -33 14 -30 9
56 -6 90 -1 134 16 134 5 0 11 -8 14 -17z m-663 -20 c-8 -15 -10 -15 -11 -2 0
17 10 32 18 25 2 -3 -1 -13 -7 -23z m-395 -71 c-27 -8 -56 -20 -64 -28 -12
-13 -42 -20 -42 -10 0 10 74 49 104 56 52 12 54 -3 2 -18z m134 19 c0 -5 -9
-12 -20 -15 -11 -3 -29 -9 -40 -12 -34 -9 -22 12 13 24 43 13 47 14 47 3z
m-90 -41 c0 -10 -71 -33 -78 -25 -3 3 4 7 14 11 10 3 28 9 39 14 11 5 21 9 23
9 1 1 2 -3 2 -9z m-188 -12 c-9 -9 -15 -9 -24 0 -9 9 -7 12 12 12 19 0 21 -3
12 -12z m69 -65 c-12 -16 -69 -71 -128 -123 -58 -52 -130 -125 -160 -163 -30
-38 -57 -66 -60 -64 -13 14 178 264 225 294 15 10 30 22 34 28 8 11 101 63
106 59 2 -1 -6 -15 -17 -31z m221 15 c-6 -6 -15 -8 -19 -4 -4 4 -1 11 7 16 8
5 17 7 19 4 3 -2 -1 -10 -7 -16z m-122 2 c-12 -8 -9 -10 13 -10 15 0 27 5 27
10 0 6 11 10 25 10 28 0 31 -8 13 -32 -15 -20 -178 -38 -178 -20 0 19 57 48
100 51 13 1 13 0 0 -9z m445 -173 c126 -126 185 -167 248 -169 26 -1 41 -6 34
-10 -35 -23 -125 8 -205 70 -78 61 -199 149 -244 177 l-47 30 37 11 c25 7 43
8 57 1 11 -6 65 -55 120 -110z m-435 48 c-14 -8 -37 -14 -51 -15 -21 0 -37
-16 -82 -78 -31 -44 -81 -101 -110 -128 -131 -120 -188 -165 -217 -171 -27 -5
-6 20 150 173 100 98 186 181 191 182 5 2 9 10 9 18 0 7 10 16 23 18 12 3 31
7 42 9 11 3 31 5 45 5 l25 1 -25 -14z m185 6 c13 -5 -7 -10 -63 -15 -90 -8
-114 -3 -61 13 41 11 97 12 124 2z m52 -53 c41 -45 263 -198 287 -198 9 0 16
-4 16 -10 0 -5 -30 -7 -72 -5 -118 8 -221 6 -253 -4 -16 -5 -61 -23 -100 -41
-132 -60 -195 -78 -300 -85 -55 -3 -117 -8 -137 -11 -55 -8 -46 7 25 40 75 36
130 72 179 120 20 20 42 36 48 36 5 0 10 9 10 20 0 15 9 22 30 27 44 8 37 23
-7 16 -37 -6 -38 -6 -20 14 9 11 17 24 17 30 0 14 56 34 75 26 27 -10 125 7
125 22 0 12 16 21 46 24 6 0 20 -9 31 -21z m-117 8 c0 -3 -4 -8 -10 -11 -5 -3
-10 -1 -10 4 0 6 5 11 10 11 6 0 10 -2 10 -4z m-953 -138 c-3 -8 -6 -5 -6 6
-1 11 2 17 5 13 3 -3 4 -12 1 -19z m1452 -124 c5 3 15 0 23 -7 7 -8 20 -16 28
-20 11 -4 9 -6 -6 -6 -11 -1 -83 -21 -159 -46 -76 -25 -163 -48 -194 -51 -83
-8 -161 -24 -161 -33 0 -14 -223 -21 -407 -14 -131 5 -169 9 -143 15 19 5 46
14 59 21 13 6 53 11 90 10 66 -2 223 28 246 47 20 17 127 48 190 56 34 4 65
13 71 22 8 11 43 15 164 18 84 2 156 6 159 9 3 4 11 -1 18 -10 6 -10 16 -14
22 -11z m-24 -94 c-3 -5 -15 -10 -27 -10 -17 0 -19 -2 -7 -16 11 -13 9 -14
-13 -9 -17 4 -44 -2 -79 -18 -30 -13 -73 -30 -97 -37 -53 -17 -69 -36 -21 -26
21 4 30 3 24 -3 -6 -6 -35 -14 -65 -20 -194 -35 -346 -78 -361 -103 -7 -11
-288 -20 -347 -11 l-32 5 36 20 c32 17 148 30 297 33 15 0 27 3 27 7 0 11 -24
16 -60 11 -33 -4 -34 -4 -16 11 11 9 41 19 68 22 26 4 45 10 43 14 -6 10 106
30 176 31 39 0 49 3 34 9 -18 8 -18 9 5 10 14 1 41 1 60 0 33 -1 103 17 358
89 2 1 0 -3 -3 -9z m30 -40 c-2 -4 14 -12 35 -19 22 -6 40 -16 40 -21 0 -9
-85 -8 -95 1 -3 3 -26 2 -53 -2 -66 -11 -121 -11 -102 0 8 5 34 12 57 16 22 3
49 12 59 19 19 14 67 19 59 6z m-125 -80 c0 -5 -15 -14 -32 -19 -33 -10 -33
-10 12 -9 76 1 90 -1 90 -17 0 -11 -11 -15 -39 -15 -22 0 -43 -4 -46 -10 -4
-6 11 -7 39 -4 28 4 46 3 46 -3 0 -6 10 -9 23 -7 100 15 111 16 102 7 -5 -5
-30 -15 -55 -22 -25 -7 -48 -18 -52 -24 -4 -7 -63 -10 -170 -9 -90 0 -221 -3
-293 -8 -71 -5 -133 -5 -138 -1 -11 11 223 81 272 81 27 0 40 4 36 11 -4 6 -1
9 6 7 20 -4 109 23 109 33 0 4 17 10 38 12 20 2 40 4 45 5 4 1 7 -2 7 -8z m30
0 c0 -5 -4 -10 -10 -10 -5 0 -10 5 -10 10 0 6 5 10 10 10 6 0 10 -4 10 -10z
m107 -46 c-3 -3 -12 -4 -19 -1 -8 3 -5 6 6 6 11 1 17 -2 13 -5z m-1100 -50
c-3 -3 -12 -4 -19 -1 -8 3 -5 6 6 6 11 1 17 -2 13 -5z m832 -78 c-2 -2 -24 -6
-49 -10 -53 -8 -47 4 7 14 36 6 52 5 42 -4z m296 4 c-3 -5 -12 -10 -20 -10 -8
0 -18 -6 -22 -13 -5 -8 -46 -19 -98 -26 -49 -8 -97 -17 -106 -22 -9 -4 -63
-15 -120 -24 -57 -9 -108 -22 -114 -29 -5 -7 -19 -18 -30 -24 -15 -8 -16 -11
-5 -12 9 0 24 6 35 14 11 7 43 17 70 22 58 10 335 12 335 2 0 -3 -28 -9 -62
-13 -35 -4 -74 -12 -87 -17 -50 -18 -199 -50 -274 -58 -58 -6 -86 -14 -110
-32 -54 -41 -57 -42 -56 -11 0 15 3 23 5 17 4 -10 103 74 100 86 -2 11 57 80
69 80 7 0 15 4 17 10 2 5 59 19 128 31 69 12 143 25 165 29 61 12 187 12 180
0z m-731 -29 c4 -5 15 -74 26 -153 11 -78 22 -153 26 -164 12 -42 -19 -50
-211 -52 -96 0 -180 -4 -185 -7 -6 -3 -10 -2 -10 2 0 15 35 29 80 32 25 2 49
5 54 8 4 3 51 15 104 27 53 13 92 25 86 28 -8 6 -217 -6 -271 -15 -17 -3 -23
1 -23 13 0 14 14 19 73 26 68 7 70 8 32 14 l-40 7 35 3 c19 1 56 3 82 5 26 2
54 8 64 13 12 6 -25 9 -114 8 -73 0 -132 2 -132 6 0 4 10 10 23 12 12 2 47 9
77 14 94 18 230 57 230 66 0 5 -25 6 -57 2 -32 -4 -87 -7 -123 -6 -36 1 -84
-3 -108 -8 -24 -6 -42 -6 -42 -1 0 5 6 9 13 9 8 0 22 9 32 20 20 22 109 54
130 46 9 -3 12 0 9 9 -4 9 3 16 18 20 42 10 103 23 110 24 4 1 9 -3 12 -8z
m52 -55 c-5 -37 5 -45 33 -27 14 9 7 51 -10 51 -20 0 -8 18 17 24 30 8 64 -1
64 -16 0 -6 -22 -33 -48 -59 -27 -27 -47 -51 -45 -53 2 -2 0 -7 -5 -10 -12 -7
-37 128 -26 145 12 20 25 -16 20 -55z m-301 34 c-22 -5 -44 -4 -49 1 -6 5 10
9 40 8 l49 -1 -40 -8z m870 -45 c-38 -13 -134 -20 -124 -10 3 2 23 7 45 11 21
3 41 8 43 10 2 2 20 4 40 3 l36 -1 -40 -13z m-985 -50 c0 -19 -4 -35 -9 -35
-9 0 -12 49 -4 63 9 15 13 6 13 -28z m1038 -47 c4 -53 -21 -66 -149 -77 -187
-17 -248 -20 -254 -11 -8 13 70 46 205 85 69 20 127 39 130 41 2 3 18 4 35 2
27 -3 30 -7 33 -40z m-1046 -52 c-6 -48 -12 -46 -12 5 0 22 4 38 8 35 4 -3 6
-21 4 -40z m1018 -44 c0 -5 -26 -15 -57 -22 -77 -18 -88 -30 -27 -31 43 0 46
-2 24 -10 -14 -6 -43 -9 -65 -8 -67 4 -115 0 -115 -10 0 -5 8 -12 18 -14 9 -3
-1 -5 -23 -6 -134 -6 -258 -20 -265 -31 -5 -8 -9 -7 -13 4 -5 11 -1 16 13 16
10 0 22 5 25 10 3 6 14 10 24 10 10 0 31 6 47 14 16 8 80 22 142 30 62 9 116
17 120 17 4 1 -11 5 -33 9 -36 6 -33 7 25 8 36 1 81 5 100 11 46 12 60 13 60
3z m-1033 -24 c-3 -8 -6 -5 -6 6 -1 11 2 17 5 13 3 -3 4 -12 1 -19z m579 7
c-11 -8 -25 -15 -30 -15 -6 0 -2 7 8 15 11 8 25 15 30 15 6 0 2 -7 -8 -15z
m189 5 c-16 -4 -43 -8 -60 -9 -23 0 -26 2 -15 9 8 5 35 9 60 9 41 -1 42 -2 15
-9z m-265 -51 c0 -4 -4 -11 -10 -14 -5 -3 -10 0 -10 9 0 8 -3 23 -6 33 -5 16
-4 16 10 -1 9 -11 16 -23 16 -27z m530 -34 c21 -26 4 -42 -62 -54 -34 -7 -78
-19 -97 -28 -19 -8 -43 -14 -55 -13 -40 3 -191 0 -223 -5 -44 -8 -42 11 1 19
19 4 39 13 45 20 6 8 54 19 107 27 73 10 94 16 89 27 -4 11 8 13 60 11 36 -1
68 1 72 4 12 12 50 7 63 -8z m-1063 -57 c-3 -7 -5 -2 -5 12 0 14 2 19 5 13 2
-7 2 -19 0 -25z m396 25 c14 -13 -47 -54 -101 -66 -31 -7 -56 -18 -55 -24 2
-10 -75 -33 -107 -33 -23 0 -7 19 25 30 47 16 36 29 -20 22 -30 -3 -45 -1 -45
7 0 6 3 10 8 9 4 -1 33 2 65 6 37 5 57 12 57 21 0 9 19 16 58 20 31 3 64 8 72
9 27 6 37 6 43 -1z m87 -63 c-8 -5 -19 -10 -25 -10 -5 0 -3 5 5 10 8 5 20 10
25 10 6 0 3 -5 -5 -10z m-125 -29 c-13 -11 -105 -21 -105 -10 0 8 33 15 85 18
17 0 25 -3 20 -8z m75 -10 c0 -6 -4 -13 -10 -16 -5 -3 -10 -1 -10 5 0 6 -5 8
-12 4 -7 -4 -8 -3 -4 4 9 14 36 16 36 3z m605 -1 c-4 -6 -36 -10 -73 -9 -37 1
-80 -2 -97 -6 -29 -6 -29 -6 -11 9 23 19 192 24 181 6z m-665 -45 c0 -45 -126
-105 -220 -105 -20 0 -41 -5 -48 -12 -9 -9 -12 -9 -12 0 0 6 -7 9 -15 6 -8 -4
-15 -1 -15 5 0 6 5 11 10 11 10 0 122 68 147 90 15 13 77 28 121 29 28 1 32
-2 32 -24z m-230 1 c0 -9 -40 -13 -46 -5 -3 5 6 9 20 9 14 0 26 -2 26 -4z
m885 -36 c-66 -13 -165 -19 -165 -10 0 10 38 15 135 17 59 1 64 0 30 -7z
m-711 -76 c20 -8 21 -38 1 -54 -9 -8 -46 -14 -86 -15 -38 -1 -75 -7 -81 -13
-16 -16 -28 -15 -28 1 0 19 59 37 100 31 42 -6 92 7 98 26 4 10 -3 12 -25 7
-91 -18 -90 -18 -48 3 45 22 47 22 69 14z m691 -15 c-22 -4 -51 -8 -65 -8 -23
0 -23 1 -5 9 11 5 40 8 65 8 l45 0 -40 -9z m-775 -163 c0 -2 -9 -6 -20 -9 -11
-3 -18 -1 -14 4 5 9 34 13 34 5z"/>
<path d="M1345 1670 c-3 -5 1 -10 10 -10 9 0 13 5 10 10 -3 6 -8 10 -10 10 -2
0 -7 -4 -10 -10z"/>
<path d="M1277 1630 c-37 -9 -65 -19 -61 -23 4 -4 -8 -13 -27 -21 -44 -20 -18
-20 45 -1 55 17 90 19 82 6 -8 -12 17 -21 86 -28 50 -5 58 -3 58 11 0 9 -6 16
-14 16 -8 0 -18 9 -21 20 -3 11 -18 23 -33 26 -15 3 -31 7 -37 8 -5 1 -41 -5
-78 -14z"/>
<path d="M1205 1532 c-16 -10 -49 -24 -72 -30 -24 -7 -43 -17 -43 -21 0 -5
-23 -14 -50 -21 -30 -7 -49 -17 -47 -24 8 -24 106 3 177 50 30 20 73 39 95 44
22 4 30 8 18 9 -12 1 -27 3 -35 6 -7 3 -26 -3 -43 -13z"/>
<path d="M1325 1520 c4 -6 2 -17 -4 -23 -8 -10 5 -13 59 -13 39 0 70 1 70 3 0
1 -19 12 -42 23 -45 21 -94 27 -83 10z"/>
<path d="M1440 1369 c-19 -5 -43 -14 -52 -19 -9 -5 -54 -12 -100 -15 -144 -10
-170 -15 -164 -31 4 -10 -2 -14 -22 -14 -27 -1 -89 -29 -64 -30 24 0 102 22
102 30 0 4 34 8 76 8 73 2 188 25 209 42 6 5 30 12 53 16 23 4 45 11 48 15 7
11 -40 10 -86 -2z"/>
<path d="M1708 1013 c7 -3 16 -2 19 1 4 3 -2 6 -13 5 -11 0 -14 -3 -6 -6z"/>
<path d="M970 760 c-42 -9 -25 -12 50 -10 30 1 59 6 65 11 11 11 -62 10 -115
-1z"/>
<path d="M1398 663 c12 -2 32 -2 45 0 12 2 2 4 -23 4 -25 0 -35 -2 -22 -4z"/>
<path d="M1408 593 c12 -2 32 -2 45 0 12 2 2 4 -23 4 -25 0 -35 -2 -22 -4z"/>
<path d="M2048 1084 c-17 -9 -25 -20 -21 -29 7 -20 8 -19 33 15 12 17 20 30
18 29 -2 -1 -15 -8 -30 -15z"/>
<path d="M370 1015 c0 -17 28 -104 40 -123 11 -16 11 -16 6 1 -3 10 -6 34 -6
52 0 28 -39 97 -40 70z"/>
<path d="M420 810 c0 -30 4 -71 10 -90 13 -49 22 -108 23 -154 1 -29 -5 -43
-22 -57 -20 -16 -21 -20 -7 -25 22 -8 82 16 65 26 -8 6 -12 46 -13 126 -1 69
-6 128 -13 139 -6 11 -18 36 -27 55 l-16 35 0 -55z"/>
<path d="M2022 836 c-15 -34 -12 -49 6 -37 8 5 12 20 10 37 l-4 29 -12 -29z"/>
<path d="M290 810 c0 -17 5 -41 11 -52 9 -16 8 -23 -2 -29 -12 -7 -11 -11 1
-19 13 -8 12 -11 -4 -23 -19 -14 -19 -15 2 -26 13 -7 20 -16 17 -21 -3 -4 -2
-16 2 -26 6 -16 7 -16 14 2 11 28 9 112 -4 168 -14 58 -37 74 -37 26z"/>
<path d="M336 591 c-3 -5 1 -11 9 -15 8 -3 15 -1 15 4 0 13 -18 22 -24 11z"/>
</g>
</svg>
